<svg xmlns="http://www.w3.org/2000/svg"
  xmlns:gf="http://glowforge.com/namespaces/gf"
  xmlns:xlink="http://www.w3.org/1999/xlink" width="20in" height="17.208333333333332in" viewBox="0 0 1920 1652">

  <gf:laserdefs>
    <gf:laserdef class="l6b482d06-e4f9-4528-9abe-5690766e371b" order="1" type="cut" power="100" speed="197.5" corner="50" materialid="UNKNOWN" settingid="cut::EMPTY_SETTING::MANUAL_SETTING"></gf:laserdef>
    <gf:laserdef class="l11b4734a-d016-4ac9-a7c8-a95c30e2873d" order="2" type="engrave" power="100" speed="2900" corner="50" scangap="6" materialid="UNKNOWN" settingid="vector_engrave::EMPTY_SETTING::MANUAL_SETTING"></gf:laserdef>
    <gf:laserdef class="la96dbc65-6796-4eec-a260-a14e053e3c1d" order="3" type="cut" power="100" speed="197.5" corner="50" materialid="UNKNOWN" settingid="cut::EMPTY_SETTING::MANUAL_SETTING"></gf:laserdef>
    <gf:laserdef class="l7ba7bee8-41b3-458c-ab30-f7a56ef3751c" order="6" type="none" power="NaN" corner="NaN" materialid="UNKNOWN" settingid="none::NONE"></gf:laserdef>
    <gf:laserdef class="l9580fd0e-cc71-49d1-9c56-ab072e428031" order="7" type="none" power="NaN" corner="NaN" materialid="UNKNOWN" settingid="none::NONE"></gf:laserdef>
    <gf:laserdef class="l86284e3b-5333-483f-8796-6c87e8fff14d" order="9" type="engrave" power="100" speed="8500" corner="50" scangap="6" materialid="UNKNOWN" settingid="vector_engrave::EMPTY_SETTING::MANUAL_SETTING"></gf:laserdef>
    <gf:laserdef class="l6ec3c8c6-74f0-41e2-a464-e2627478b766" order="10" type="engrave" power="100" speed="8500" corner="50" scangap="6" materialid="UNKNOWN" settingid="vector_engrave::EMPTY_SETTING::MANUAL_SETTING"></gf:laserdef>
  </gf:laserdefs>

  <g id="oEw">
    <g id="oE">
      <g id="g349f9d5b-13c6-4965-adf6-116ec7dd39f0">
        <path class="e l6b482d06-e4f9-4528-9abe-5690766e371b l6b482d06-e4f9-4528-9abe-5690766e371b" id="e0" transform="matrix(2.220446049250313e-16,1,-1,2.220446049250313e-16,614.0510620787732,53.648767255062154)" d="M378.70866146 15.11811024A15.11811024 15.11811024 0 0 0 363.59055122 0L15.11811018 0A15.11811024 15.11811024 0 0 0 -6e-8 15.11811024L-6e-8 61.22834647A15.11811024 15.11811024 0 0 0 15.11811018 76.3464567L363.59055122 76.3464567A15.11811024 15.11811024 0 0 0 378.70866146 61.22834647L378.70866146 15.11811024z"></path>
        <path class="e l11b4734a-d016-4ac9-a7c8-a95c30e2873d l11b4734a-d016-4ac9-a7c8-a95c30e2873d" id="e1" transform="matrix(2.220446049250313e-16,1,-1,2.220446049250313e-16,614.0510620787732,53.648767255062154)" d="M-6e-8 22.67716536L-6e-8 15.11811024L378.70866146 15.11811024L378.70866146 22.67716536L193.51181102 22.67716536L193.51181102 19.6535433L185.9527559 19.6535433L185.9527559 22.67716536L-6e-8 22.67716536z"></path>
        <path class="e la96dbc65-6796-4eec-a260-a14e053e3c1d la96dbc65-6796-4eec-a260-a14e053e3c1d" id="e2" transform="matrix(2.220446049250313e-16,1,-1,2.220446049250313e-16,614.0510620787732,53.648767255062154)" d="M24.24020782 38.17322836A15.11811024 15.11811024 0 1 0 54.4764283 38.17322836A15.11811024 15.11811024 0 1 0 24.24020782 38.17322836z"></path>
        <path class="e la96dbc65-6796-4eec-a260-a14e053e3c1d la96dbc65-6796-4eec-a260-a14e053e3c1d" id="e3" transform="matrix(2.220446049250313e-16,1,-1,2.220446049250313e-16,614.0510620787732,53.648767255062154)" d="M193.51181102 57.4488189L185.9527559 57.4488189L185.9527559 19.6535433L193.51181102 19.6535433L193.51181102 57.4488189z"></path>
      </g>
      <g id="gde448d34-8d8a-4c0b-b8b5-9ba14fcc6baf">
        <path class="e l6ec3c8c6-74f0-41e2-a464-e2627478b766 l6ec3c8c6-74f0-41e2-a464-e2627478b766" id="e4" transform="matrix(0.1125597806375857,0,0,0.1125597806375857,551.3221712600922,62.52186236063089)" d="M16.46,0.41c0.54667,-0.27333 1.14,-0.41 1.78,-0.41h7.41c0.91333,0 1.37,0.45667 1.37,1.37v93.26c0,0.91333 -0.45667,1.37 -1.37,1.37h-7c-0.91333,0 -1.37,-0.45667 -1.37,-1.37v-83.11c0,-0.18 -0.07,-0.31667 -0.21,-0.41c-0.13333,-0.09333 -0.29333,-0.09333 -0.48,0l-12.89,4.25l-0.41,0.14c-0.64,0 -1.05,-0.41333 -1.23,-1.24l-0.69,-5.07v-0.28c0,-0.45333 0.32,-0.91 0.96,-1.37zM48.62,90.58c-4.25333,-4.52667 -6.38,-10.44667 -6.38,-17.76v-49.64c0,-7.31333 2.12667,-13.23333 6.38,-17.76c4.24667,-4.52667 9.84667,-6.79 16.8,-6.79c7.04,0 12.70667,2.26333 17,6.79c4.3,4.52667 6.45,10.44667 6.45,17.76v49.64c0,7.31333 -2.15,13.23333 -6.45,17.76c-4.29333,4.52667 -9.96,6.79 -17,6.79c-6.95333,0 -12.55333,-2.26333 -16.8,-6.79zM75.43,84.62c2.46667,-2.83333 3.7,-6.58333 3.7,-11.25v-50.74c0,-4.66667 -1.23333,-8.41667 -3.7,-11.25c-2.46667,-2.83333 -5.80333,-4.25 -10.01,-4.25c-4.02667,0 -7.27333,1.41667 -9.74,4.25c-2.46667,2.83333 -3.7,6.58333 -3.7,11.25v50.74c0,4.66667 1.23333,8.41667 3.7,11.25c2.46667,2.83333 5.71333,4.25 9.74,4.25c4.20667,0 7.54333,-1.41667 10.01,-4.25zM109.51,90.58c-4.25333,-4.52667 -6.38,-10.44667 -6.38,-17.76v-49.64c0,-7.31333 2.12667,-13.23333 6.38,-17.76c4.25333,-4.52667 9.85333,-6.79 16.8,-6.79c7.04,0 12.70667,2.26333 17,6.79c4.3,4.52667 6.45,10.44667 6.45,17.76v49.64c0,7.31333 -2.15,13.23333 -6.45,17.76c-4.29333,4.52667 -9.96,6.79 -17,6.79c-6.94667,0 -12.54667,-2.26333 -16.8,-6.79zM136.32,84.62c2.46667,-2.83333 3.7,-6.58333 3.7,-11.25v-50.74c0,-4.66667 -1.23333,-8.41667 -3.7,-11.25c-2.46667,-2.83333 -5.80333,-4.25 -10.01,-4.25c-4.02667,0 -7.27333,1.41667 -9.74,4.25c-2.46667,2.83333 -3.7,6.58333 -3.7,11.25v50.74c0,4.66667 1.23333,8.41667 3.7,11.25c2.46667,2.83333 5.71333,4.25 9.74,4.25c4.20667,0 7.54333,-1.41667 10.01,-4.25zM233.55,31.68c3.02,4.02 4.53,9.59667 4.53,16.73v46.22c0,0.91333 -0.45667,1.37 -1.37,1.37h-6.86c-0.91333,0 -1.37,-0.45667 -1.37,-1.37v-45.4c0,-4.66 -0.98333,-8.34 -2.95,-11.04c-1.96667,-2.69333 -4.55,-4.04 -7.75,-4.04c-3.47333,0 -6.21667,1.32667 -8.23,3.98c-2.00667,2.64667 -3.01,6.25667 -3.01,10.83v45.67c0,0.91333 -0.45667,1.37 -1.37,1.37h-7c-0.91333,0 -1.37,-0.45667 -1.37,-1.37v-45.4c0,-4.66 -0.98333,-8.34 -2.95,-11.04c-1.96667,-2.69333 -4.50333,-4.04 -7.61,-4.04c-3.47333,0 -6.24,1.32667 -8.3,3.98c-2.05333,2.64667 -3.08,6.25667 -3.08,10.83v45.67c0,0.91333 -0.45667,1.37 -1.37,1.37h-6.86c-0.91333,0 -1.37,-0.45667 -1.37,-1.37v-66.65c0,-0.91333 0.45667,-1.37 1.37,-1.37h6.86c0.91333,0 1.37,0.45667 1.37,1.37v4.25c0,0.18 0.06667,0.29333 0.2,0.34c0.14,0.04667 0.3,-0.02 0.48,-0.2c1.74,-2.28667 3.79667,-3.98 6.17,-5.08c2.38,-1.09333 4.89667,-1.64 7.55,-1.64c3.47333,0 6.49,0.84333 9.05,2.53c2.56,1.69333 4.52667,4.09333 5.9,7.2c0.08667,0.18667 0.22333,0.28 0.41,0.28c0.18,0 0.31667,-0.13667 0.41,-0.41c1.64667,-3.29333 3.88667,-5.71667 6.72,-7.27c2.83333,-1.55333 5.85,-2.33 9.05,-2.33c5.48667,0 9.73667,2.01 12.75,6.03zM322.42,31.68c3.02,4.02 4.53,9.59667 4.53,16.73v46.22c0,0.91333 -0.45667,1.37 -1.37,1.37h-6.86c-0.91333,0 -1.37,-0.45667 -1.37,-1.37v-45.4c0,-4.66 -0.98333,-8.34 -2.95,-11.04c-1.96667,-2.69333 -4.55,-4.04 -7.75,-4.04c-3.47333,0 -6.21667,1.32667 -8.23,3.98c-2.00667,2.64667 -3.01,6.25667 -3.01,10.83v45.67c0,0.91333 -0.46,1.37 -1.38,1.37h-6.99c-0.91333,0 -1.37,-0.45667 -1.37,-1.37v-45.4c0,-4.66 -0.98333,-8.34 -2.95,-11.04c-1.96667,-2.69333 -4.50333,-4.04 -7.61,-4.04c-3.47333,0 -6.24,1.32667 -8.3,3.98c-2.05333,2.64667 -3.08,6.25667 -3.08,10.83v45.67c0,0.91333 -0.46,1.37 -1.38,1.37h-6.85c-0.91333,0 -1.37,-0.45667 -1.37,-1.37v-66.65c0,-0.91333 0.45667,-1.37 1.37,-1.37h6.85c0.92,0 1.38,0.45667 1.38,1.37v4.25c0,0.18 0.06667,0.29333 0.2,0.34c0.14,0.04667 0.3,-0.02 0.48,-0.2c1.74,-2.28667 3.79667,-3.98 6.17,-5.08c2.38,-1.09333 4.89667,-1.64 7.55,-1.64c3.47333,0 6.49,0.84333 9.05,2.53c2.56,1.69333 4.52333,4.09333 5.89,7.2c0.09333,0.18667 0.23333,0.28 0.42,0.28c0.18,0 0.31667,-0.13667 0.41,-0.41c1.64667,-3.29333 3.88667,-5.71667 6.72,-7.27c2.83333,-1.55333 5.85,-2.33 9.05,-2.33c5.48667,0 9.73667,2.01 12.75,6.03z"></path>
      </g>
      <g id="gb5a77897-f7d2-4f50-94ea-818681fa67bf">
        <path class="e l7ba7bee8-41b3-458c-ab30-f7a56ef3751c l7ba7bee8-41b3-458c-ab30-f7a56ef3751c" id="e5" transform="matrix(2.220446049250313e-16,1,-1,2.220446049250313e-16,614.0510620787732,53.64876727006222)" d="M378.70866144 15.11811023A15.11811024 15.11811024 0 0 0 363.5905512 0L15.11811017 0A15.11811024 15.11811024 0 0 0 -7e-8 15.11811023L-7e-8 61.22834647A15.11811024 15.11811024 0 0 0 15.11811017 76.3464567L363.5905512 76.3464567A15.11811024 15.11811024 0 0 0 378.70866144 61.22834647L378.70866144 15.11811023z"></path>
        <path class="e l9580fd0e-cc71-49d1-9c56-ab072e428031 l9580fd0e-cc71-49d1-9c56-ab072e428031" id="e6" transform="matrix(2.220446049250313e-16,1,-1,2.220446049250313e-16,614.0510620787732,53.64876727006222)" d="M24.2402078 38.17322835A15.11811024 15.11811024 0 1 0 54.4764283 38.17322835A15.11811024 15.11811024 0 1 0 24.2402078 38.17322835z"></path>
        <path class="e l9580fd0e-cc71-49d1-9c56-ab072e428031 l9580fd0e-cc71-49d1-9c56-ab072e428031" id="e7" transform="matrix(2.220446049250313e-16,1,-1,2.220446049250313e-16,614.0510620787732,53.64876727006222)" d="M193.511811 19.6535433L193.511811 57.4488189L185.95275588 57.4488189L185.95275588 19.6535433L193.511811 19.6535433z"></path>
      </g>
      <g id="g1">
        <path class="e l86284e3b-5333-483f-8796-6c87e8fff14d l86284e3b-5333-483f-8796-6c87e8fff14d" id="e8" transform="matrix(0.1125597806375857,0,0,0.1125597806375857,553.5683816001596,221.91030824031017)" d="M70.97429,66.79c0,4.11333 -0.27667,7.90667 -0.83,11.38c-0.91333,6.12667 -3.17333,10.81333 -6.78,14.06c-3.61333,3.24667 -8.39333,4.87 -14.34,4.87c-5.94,0 -10.71667,-1.6 -14.33,-4.8c-3.60667,-3.2 -5.91333,-8 -6.92,-14.4l-0.41,-4.12v-0.27c0,-0.73333 0.41,-1.1 1.23,-1.1h6.99c0.92,0 1.42333,0.45667 1.51,1.37l0.41,3.29c1.46667,7.68 5.30667,11.52 11.52,11.52c2.92667,0 5.35,-0.93667 7.27,-2.81c1.92,-1.87333 3.24667,-4.59333 3.98,-8.16c0.64,-2.92667 0.96,-6.58333 0.96,-10.97c0,-4.57333 -0.41,-8.50333 -1.23,-11.79c-1.64667,-6.4 -5.30667,-9.6 -10.98,-9.6c-6.30667,0 -10.23667,3.15333 -11.79,9.46c-0.27333,0.82 -0.77667,1.23 -1.51,1.23h-7.13c-0.91333,0 -1.37,-0.45667 -1.37,-1.37v-53.21c0,-0.91333 0.45667,-1.37 1.37,-1.37h38.81c0.91333,0 1.37,0.45667 1.37,1.37v5.76c0,0.91333 -0.45667,1.37 -1.37,1.37h-29.9c-0.36,0 -0.54,0.18333 -0.54,0.55l-0.14,34.01c0,0.18667 0.06667,0.32333 0.2,0.41c0.14,0.09333 0.3,0.05 0.48,-0.13c1.46667,-2.19333 3.41,-3.86333 5.83,-5.01c2.42667,-1.14 5.14667,-1.71 8.16,-1.71c4.84667,0 8.82333,1.46333 11.93,4.39c3.11333,2.92 5.17333,7.12333 6.18,12.61c0.91333,3.38667 1.37,7.77667 1.37,13.17zM89.55429,90.58c-4.25333,-4.52667 -6.38,-10.44667 -6.38,-17.76v-49.64c0,-7.31333 2.12667,-13.23333 6.38,-17.76c4.25333,-4.52667 9.85333,-6.79 16.8,-6.79c7.04,0 12.71,2.26333 17.01,6.79c4.29333,4.52667 6.44,10.44667 6.44,17.76v49.64c0,7.31333 -2.14667,13.23333 -6.44,17.76c-4.3,4.52667 -9.97,6.79 -17.01,6.79c-6.94667,0 -12.54667,-2.26333 -16.8,-6.79zM116.36429,84.62c2.46667,-2.83333 3.7,-6.58333 3.7,-11.25v-50.74c0,-4.66667 -1.23333,-8.41667 -3.7,-11.25c-2.46667,-2.83333 -5.80333,-4.25 -10.01,-4.25c-4.02,0 -7.26667,1.41667 -9.74,4.25c-2.46667,2.83333 -3.7,6.58333 -3.7,11.25v50.74c0,4.66667 1.23333,8.41667 3.7,11.25c2.47333,2.83333 5.72,4.25 9.74,4.25c4.20667,0 7.54333,-1.41667 10.01,-4.25zM213.60429,31.68c3.01333,4.02 4.52,9.59667 4.52,16.73v46.22c0,0.91333 -0.45667,1.37 -1.37,1.37h-6.86c-0.91333,0 -1.37,-0.45667 -1.37,-1.37v-45.4c0,-4.66 -0.98333,-8.34 -2.95,-11.04c-1.96667,-2.69333 -4.55,-4.04 -7.75,-4.04c-3.47333,0 -6.21333,1.32667 -8.22,3.98c-2.01333,2.64667 -3.02,6.25667 -3.02,10.83v45.67c0,0.91333 -0.45667,1.37 -1.37,1.37h-7c-0.91333,0 -1.37,-0.45667 -1.37,-1.37v-45.4c0,-4.66 -0.98333,-8.34 -2.95,-11.04c-1.96667,-2.69333 -4.50333,-4.04 -7.61,-4.04c-3.47333,0 -6.24,1.32667 -8.3,3.98c-2.05333,2.64667 -3.08,6.25667 -3.08,10.83v45.67c0,0.91333 -0.45667,1.37 -1.37,1.37h-6.86c-0.91333,0 -1.37,-0.45667 -1.37,-1.37v-66.65c0,-0.91333 0.45667,-1.37 1.37,-1.37h6.86c0.91333,0 1.37,0.45667 1.37,1.37v4.25c0,0.18 0.06667,0.29333 0.2,0.34c0.14,0.04667 0.3,-0.02 0.48,-0.2c1.74,-2.28667 3.8,-3.98 6.18,-5.08c2.37333,-1.09333 4.88667,-1.64 7.54,-1.64c3.47333,0 6.49,0.84333 9.05,2.53c2.56,1.69333 4.52667,4.09333 5.9,7.2c0.08667,0.18667 0.22333,0.28 0.41,0.28c0.18,0 0.31667,-0.13667 0.41,-0.41c1.64667,-3.29333 3.88667,-5.71667 6.72,-7.27c2.83333,-1.55333 5.85,-2.33 9.05,-2.33c5.48667,0 9.74,2.01 12.76,6.03zM302.46429,31.68c3.02,4.02 4.53,9.59667 4.53,16.73v46.22c0,0.91333 -0.45667,1.37 -1.37,1.37h-6.86c-0.91333,0 -1.37,-0.45667 -1.37,-1.37v-45.4c0,-4.66 -0.98333,-8.34 -2.95,-11.04c-1.96667,-2.69333 -4.55,-4.04 -7.75,-4.04c-3.47333,0 -6.21667,1.32667 -8.23,3.98c-2.00667,2.64667 -3.01,6.25667 -3.01,10.83v45.67c0,0.91333 -0.45667,1.37 -1.37,1.37h-7c-0.91333,0 -1.37,-0.45667 -1.37,-1.37v-45.4c0,-4.66 -0.98333,-8.34 -2.95,-11.04c-1.96667,-2.69333 -4.50333,-4.04 -7.61,-4.04c-3.47333,0 -6.24,1.32667 -8.3,3.98c-2.05333,2.64667 -3.08,6.25667 -3.08,10.83v45.67c0,0.91333 -0.45667,1.37 -1.37,1.37h-6.86c-0.91333,0 -1.37,-0.45667 -1.37,-1.37v-66.65c0,-0.91333 0.45667,-1.37 1.37,-1.37h6.86c0.91333,0 1.37,0.45667 1.37,1.37v4.25c0,0.18 0.06667,0.29333 0.2,0.34c0.14,0.04667 0.3,-0.02 0.48,-0.2c1.74,-2.28667 3.79667,-3.98 6.17,-5.08c2.38,-1.09333 4.89667,-1.64 7.55,-1.64c3.47333,0 6.49,0.84333 9.05,2.53c2.56,1.69333 4.52667,4.09333 5.9,7.2c0.08667,0.18667 0.22333,0.28 0.41,0.28c0.18,0 0.31667,-0.13667 0.41,-0.41c1.64667,-3.29333 3.88667,-5.71667 6.72,-7.27c2.83333,-1.55333 5.85,-2.33 9.05,-2.33c5.48667,0 9.73667,2.01 12.75,6.03z"></path>
      </g>
    </g>
  </g>
  <style type="text/css">.l6b482d06-e4f9-4528-9abe-5690766e371b { stroke: #000000; fill: none; }.l11b4734a-d016-4ac9-a7c8-a95c30e2873d { stroke: none; fill: #181493; }.la96dbc65-6796-4eec-a260-a14e053e3c1d { stroke: #297200; fill: none; }.l7ba7bee8-41b3-458c-ab30-f7a56ef3751c { stroke: #548ab2; fill: none; }.l9580fd0e-cc71-49d1-9c56-ab072e428031 { stroke: #6e001f; fill: none; }.l86284e3b-5333-483f-8796-6c87e8fff14d { stroke: none; fill: #9e5000; }.l6ec3c8c6-74f0-41e2-a464-e2627478b766 { stroke: none; fill: #e53595; }</style>
  <text y="1172" x="20">
    <tspan>Glowforge® print settings</tspan>
    <tspan x="20" dy="20">Design id: 7BG1AYAE1WQVBB5CZUAWCEVDFMHPF</tspan>
    <tspan x="20" dy="20">Timestamp: Fri Dec 08 2023 13:27:23 GMT-0500 (Eastern Standard Time)</tspan>
    <tspan x="20" dy="20">Version: 1.0</tspan>
    <tspan x="20" dy="20" fill="#000000">Step 0: #000000 Cut::Manual</tspan>
    <tspan x="20" dy="20" fill="#000000">Step 0: #000000 Speed=110</tspan>
    <tspan x="20" dy="20" fill="#000000">Step 0: #000000 Precision Power=full</tspan>
    <tspan x="20" dy="20" fill="#181493">Step 1: #181493 Engrave::Manual</tspan>
    <tspan x="20" dy="20" fill="#181493">Step 1: #181493 Speed=400</tspan>
    <tspan x="20" dy="20" fill="#181493">Step 1: #181493 Precision Power=full</tspan>
    <tspan x="20" dy="20" fill="#181493">Step 1: #181493 Lines Per Inch=225</tspan>
    <tspan x="20" dy="20" fill="#297200">Step 2: #297200 Cut::Manual</tspan>
    <tspan x="20" dy="20" fill="#297200">Step 2: #297200 Speed=110</tspan>
    <tspan x="20" dy="20" fill="#297200">Step 2: #297200 Precision Power=full</tspan>
    <tspan x="20" dy="20" fill="#548ab2">Step 3: #548ab2 Ignore</tspan>
    <tspan x="20" dy="20" fill="#6e001f">Step 4: #6e001f Ignore</tspan>
    <tspan x="20" dy="20" fill="#9e5000">Step 5: #9e5000 Engrave::Manual</tspan>
    <tspan x="20" dy="20" fill="#9e5000">Step 5: #9e5000 Speed=1000</tspan>
    <tspan x="20" dy="20" fill="#9e5000">Step 5: #9e5000 Precision Power=full</tspan>
    <tspan x="20" dy="20" fill="#9e5000">Step 5: #9e5000 Lines Per Inch=225</tspan>
    <tspan x="20" dy="20" fill="#e53595">Step 6: #e53595 Engrave::Manual</tspan>
    <tspan x="20" dy="20" fill="#e53595">Step 6: #e53595 Speed=1000</tspan>
    <tspan x="20" dy="20" fill="#e53595">Step 6: #e53595 Precision Power=full</tspan>
    <tspan x="20" dy="20" fill="#e53595">Step 6: #e53595 Lines Per Inch=225</tspan>
  </text>
</svg>